<svg xmlns="http://www.w3.org/2000/svg" width="283.20468750000003" height="283.20468750000003" viewBox="0 0 312.5 312.5" class="looka-1j8o68f"><defs id="SvgjsDefs2691"/><g id="SvgjsG2692" featurekey="rootContainer" transform="matrix(1.5902660807115943,0,0,1.5902660807115943,0,0)" fill="#60a5fa"><path xmlns="http://www.w3.org/2000/svg" d="M98.254 0C44.077 0 0 44.076 0 98.254s44.077 98.254 98.254 98.254c54.177 0 98.254-44.076 98.254-98.254S152.431 0 98.254 0zm0 195.508C44.628 195.508 1 151.88 1 98.254S44.628 1 98.254 1c53.626 0 97.254 43.628 97.254 97.254s-43.628 97.254-97.254 97.254z"/><path xmlns="http://www.w3.org/2000/svg" d="M98.254 5.453c-51.171 0-92.801 41.63-92.801 92.801s41.63 92.801 92.801 92.801 92.802-41.63 92.802-92.801S149.425 5.453 98.254 5.453z"/></g><g id="SvgjsG2693" featurekey="symbolFeature-0" transform="matrix(0.28163817792527124,0,0,0.28163817792527124,82.7332264054271,52.43699309473778)" fill="#111827"><g xmlns="http://www.w3.org/2000/svg" fill="#111827"><path d="M260.14 115.62q.18 0 .33.15 84.8 84.53 139.41 139.07a.39.39 0 0 1-.28.66h-14.7a1.14 1.13-22.9 0 1-.79-.32q-61.73-61.58-123.45-123.16-.26-.25-.53-.25t-.53.25q-61.76 61.54-123.53 123.08a1.14 1.13 23 0 1-.79.32l-14.7-.01a.39.39 0 0 1-.28-.66q54.64-54.51 139.5-138.98.15-.15.34-.15"/><path d="M162.67 261.26a.28.28 0 0 0 0 .4l96.96 96.96a.7.69-44.7 0 0 .99 0l93.28-93.28a1.4 1.4 0 0 1 .99-.41h14.41q.31 0 .3.32-.01.2-.21.4-57.55 58.37-108.64 109.14a.58.57-44.6 0 1-.81 0l-112.8-112.8a.88.88 0 0 1 0-1.24l112.63-112.64a.57.57 0 0 1 .8 0l106.68 106.68q.68.68-.28.68h-14.56a1.28 1.26-22.1 0 1-.9-.37l-90.9-90.9a.65.63-44.7 0 0-.9.01z"/><path d="m260.29 325.91 60.83-60.83a.36.36 0 0 1 .26-.11h15.28a.36.36 0 0 1 .26.61l-76.36 76.35a.36.36 0 0 1-.5 0l-80.59-80.59a.36.36 0 0 1 0-.5l80.45-80.46a.36.36 0 0 1 .5 0l74.46 74.46a.36.36 0 0 1-.26.61h-14.85a.36.36 0 0 1-.26-.11l-59.27-59.27a.36.36 0 0 0-.5 0l-64.65 64.64a.36.36 0 0 0 0 .5l64.7 64.7a.36.36 0 0 0 .5 0"/><path d="M260.55 228.53a.64.64 0 0 0-.91 0l-32.26 32.25a.38.37-45.6 0 0 0 .53l32.28 32.29a.47.46 44.6 0 0 .65 0l28.21-28.21a1.45 1.43 22.2 0 1 1.02-.42h13.96a.44.44 0 0 1 .44.4q.02.28-.25.56-12.64 12.87-43.37 43.65a.28.28 0 0 1-.39 0l-47.96-47.96a.81.81 0 0 1 0-1.14l47.88-47.88a.39.38 44.5 0 1 .55 0l42.13 42.13q.71.71-.3.71h-14.17q-.6 0-1.02-.42z"/><rect width="22.88" height="22.88" x="-11.44" y="-11.44" rx=".53" transform="rotate(44.9 -185.714 445.174)"/><path d="M260.18 391.63q.17 0 .31-.14 62.91-62.81 125.72-125.96a2.13 2.11 22.1 0 1 1.51-.63h14.04a.42.41-67.4 0 1 .29.71Q338.32 329.57 260.4 407.6l-.12.02q-.05.01-.1.01t-.1-.01l-.12-.02Q182 329.61 118.24 265.69a.42.41 67.4 0 1 .29-.71l14.04-.01a2.13 2.11-22.1 0 1 1.51.63q62.84 63.11 125.79 125.89.13.14.31.14"/></g></g><g id="SvgjsG2694" featurekey="nameFeature-0" transform="matrix(1.202836731560616,0,0,1.202836731560616,50.563178569845554,175.39047098410586)" fill="#111827"><path d="M12.36 14.64 c3.64 0 7.52 1.4 7.52 5.52 c0 0.96 -0.64 1.4 -1.32 1.4 s-1.4 -0.48 -1.4 -1.4 c0 -0.32 -0.2 -2.92 -4.8 -2.92 c-3.64 0 -5.24 1.44 -5.24 4.88 l0 9.64 c0 3.48 1.96 4.56 5.24 4.56 c3.32 0 5.16 -1.36 5.16 -4.6 c0 -0.92 0.68 -1.36 1.32 -1.36 c0.68 0 1.32 0.44 1.32 1.36 c0 5.4 -3 7.2 -7.8 7.2 c-5.2 0 -7.84 -1.92 -7.84 -7.16 l0 -9.64 c0 -5.68 2.84 -7.48 7.84 -7.48 z M32.556000000000004 37.4 l0 -21.28 c0 -0.92 0.72 -1.4 1.4 -1.4 l9.2 0 c0.88 0 1.32 0.64 1.32 1.32 s-0.44 1.36 -1.32 1.36 l-7.92 0 l0 7.76 l6.28 0 c0.92 0 1.36 0.64 1.36 1.32 s-0.48 1.4 -1.36 1.4 l-6.28 0 l0 8.28 l7.92 0 c0.84 0 1.28 0.68 1.28 1.32 c0 0.68 -0.44 1.32 -1.28 1.32 l-9.2 0 c-0.68 0 -1.4 -0.24 -1.4 -1.4 z M59.352000000000004 31.8 l0 5.72 c0 0.88 -0.68 1.28 -1.32 1.28 c-0.68 0 -1.32 -0.4 -1.32 -1.28 l0 -21.48 c0 -0.8 0.44 -1.32 1.32 -1.32 l5.4 0 c1.52 0 6.32 0.44 6.32 5.84 l0 5 c0 3.04 -1.12 4.96 -3.68 5.8 l2.72 5.48 c0.56 1.08 -0.28 1.96 -1.16 1.96 c-0.48 0 -1.08 -0.32 -1.4 -1 l-2.92 -6 l-3.96 0 z M67.11200000000001 25.560000000000002 l0 -5 c0 -0.96 -0.36 -3.16 -3.68 -3.16 l-4.08 0 l0 11.72 l3.72 0 c1.96 0 4.04 -0.44 4.04 -3.56 z M94.188 37.72 l-1.56 -5.08 l-7.44 0 l-1.48 5 c-0.52 1.72 -3.16 1.2 -2.6 -0.56 c2.08 -7 4.12 -14.12 6.16 -21.2 c0.24 -0.76 0.88 -1.16 1.52 -1.16 c0.6 0 1.24 0.4 1.48 1.16 l6.36 21.2 c0.44 1.52 -1.92 2.36 -2.44 0.64 z M88.86800000000001 20.12 l-2.88 9.84 l5.88 0 c-1 -3.36 -1.92 -6.24 -3 -9.84 z M126.504 37.52 l0 -17.84 l-6.36 18 c-0.36 1 -1.68 1.24 -2.08 0 l-6.16 -18 l0 17.84 c0 0.84 -0.64 1.28 -1.32 1.28 s-1.36 -0.44 -1.36 -1.28 l0 -21.48 c0 -0.76 0.56 -1.32 1.36 -1.32 l1.28 0 c0.88 0 1.36 0.64 1.56 1.24 c1.92 5.72 3.68 10.8 5.64 16.56 l5.8 -16.68 c0.2 -0.56 0.56 -1.12 1.4 -1.12 l1.6 0 c1.16 0 1.32 0.64 1.32 1.28 l0 21.52 c0 0.84 -0.68 1.28 -1.36 1.28 s-1.32 -0.44 -1.32 -1.28 z  M141.46 37.56 l0 -21.56 c0 -0.84 0.64 -1.28 1.28 -1.28 s1.32 0.44 1.32 1.28 l0 21.56 c0 1.72 -2.6 1.72 -2.6 0 z M168.136 37.96 l-4.8 -9.32 l-4.84 9.2 c-1.12 2.12 -3.28 0.6 -2.48 -0.96 l5.76 -11.12 l-4.68 -9 c-0.92 -1.8 1.64 -2.8 2.4 -1.32 l3.84 7.28 l3.76 -7.2 c0.88 -1.72 3.24 -0.56 2.4 1.04 l-4.68 9.12 l5.8 11.28 c0.84 1.64 -1.52 2.8 -2.48 1 z"/></g></svg>